<?xml version="1.0" standalone="no"?>
<!DOCTYPE svg PUBLIC "-//W3C//DTD SVG 20010904//EN"
 "http://www.w3.org/TR/2001/REC-SVG-20010904/DTD/svg10.dtd">
<svg version="1.0" xmlns="http://www.w3.org/2000/svg"
 width="21.000000pt" height="16.000000pt" viewBox="0 0 21.000000 16.000000"
 preserveAspectRatio="xMidYMid meet">

<g transform="translate(0.000000,16.000000) scale(0.100000,-0.100000)"
fill="#000000" stroke="none">
<path d="M43 134 c-41 -18 -44 -51 -7 -91 20 -22 23 -23 15 -6 -16 31 -13 69
5 84 20 17 34 -2 34 -48 0 -18 5 -33 10 -33 6 0 10 12 10 26 0 54 38 85 59 46
6 -12 5 -28 -5 -51 -19 -44 -12 -50 15 -13 26 37 27 64 3 85 -22 20 -43 22
-60 5 -9 -9 -15 -9 -24 0 -14 14 -14 14 -55 -4z"/>
</g>
</svg>
